<svg xmlns="http://www.w3.org/2000/svg" version="1.1" xmlns:xlink="http://www.w3.org/1999/xlink" xmlns:svgjs="http://svgjs.dev/svgjs" width="1500" height="1500" viewBox="0 0 1500 1500"><rect width="1500" height="1500" fill="#003366"></rect><g transform="matrix(0.6666666666666666,0,0,0.6666666666666666,249.39393939393938,579.8536200329081)"><svg viewBox="0 0 396 135" data-background-color="#003366" preserveAspectRatio="xMidYMid meet" height="511" width="1500" xmlns="http://www.w3.org/2000/svg" xmlns:xlink="http://www.w3.org/1999/xlink"><g id="tight-bounds" transform="matrix(1,0,0,1,0.2400000000000091,-0.07386688726057855)"><svg viewBox="0 0 395.52 135.1475249464264" height="135.1475249464264" width="395.52"><g><svg viewBox="0 0 395.52 135.1475249464264" height="135.1475249464264" width="395.52"><g><svg viewBox="0 0 656.2257963479518 224.22960199844087" height="135.1475249464264" width="395.52"><g transform="matrix(1,0,0,1,258.7281963479519,65.45776848704456)"><svg viewBox="0 0 397.4975999999999 93.31406502435175" height="93.31406502435175" width="397.4975999999999"><g id="textblocktransform"><svg viewBox="0 0 397.4975999999999 93.31406502435175" height="93.31406502435175" width="397.4975999999999" id="textblock"><g><rect width="397.4975999999999" height="4.994527587317659" x="0" y="61.266955005951594" fill="#ffffff" opacity="1" stroke-width="0" stroke="transparent" fill-opacity="1" class="rect-qz-0" data-fill-palette-color="primary" rx="1%" id="qz-0" data-palette-color="#ffffff"></rect></g><g transform="matrix(1,0,0,1,0.9887999999999693,0)"><svg viewBox="0 0 395.52 55.3833492093732" height="55.3833492093732" width="395.52"><g transform="matrix(1,0,0,1,0,0)"><svg width="395.52" viewBox="2.35 -36.15 262.42999999999995 36.75" height="55.3833492093732" data-palette-color="#ffffff"><path d="M19.35 0.6Q10.95 0.6 6.65-3.83 2.35-8.25 2.35-17.15L2.35-17.15Q2.35-34.9 19.65-34.9L19.65-34.9Q26.75-34.9 31.05-31.75 35.35-28.6 35.35-22.6L35.35-22.6 30.5-22.6Q30.5-26.75 27.6-28.8 24.7-30.85 19.65-30.85L19.65-30.85Q13.4-30.85 10.35-27.65 7.3-24.45 7.3-17.15L7.3-17.15 7.3-17.05Q7.35-9.8 10.33-6.63 13.3-3.45 19.35-3.45L19.35-3.45Q25.15-3.45 27.88-5.85 30.6-8.25 30.6-13.2L30.6-13.2 30.6-13.7 18.5-13.7 18.5-17.85 35.35-17.85 35.35 0 31.65 0 31.3-3.8Q27.4 0.6 19.35 0.6L19.35 0.6ZM52.8 0.6Q46.75 0.6 43.7-2.78 40.65-6.15 40.65-13.15L40.65-13.15Q40.65-20.15 43.7-23.53 46.75-26.9 52.8-26.9L52.8-26.9Q58.85-26.9 61.9-23.53 64.95-20.15 64.95-13.15L64.95-13.15Q64.95-6.15 61.9-2.78 58.85 0.6 52.8 0.6L52.8 0.6ZM52.8-3.05Q56.8-3.05 58.6-5.38 60.4-7.7 60.4-12.95L60.4-12.95 60.4-13.35Q60.4-18.6 58.6-20.93 56.8-23.25 52.8-23.25L52.8-23.25Q48.8-23.25 47-20.93 45.2-18.6 45.2-13.35L45.2-13.35 45.2-12.95Q45.2-7.7 47-5.38 48.8-3.05 52.8-3.05L52.8-3.05ZM80.6 0.6Q74.55 0.6 71.5-2.78 68.45-6.15 68.45-13.15L68.45-13.15Q68.45-20.15 71.5-23.53 74.55-26.9 80.6-26.9L80.6-26.9Q86.65-26.9 89.7-23.53 92.75-20.15 92.75-13.15L92.75-13.15Q92.75-6.15 89.7-2.78 86.65 0.6 80.6 0.6L80.6 0.6ZM80.6-3.05Q84.6-3.05 86.4-5.38 88.2-7.7 88.2-12.95L88.2-12.95 88.2-13.35Q88.2-18.6 86.4-20.93 84.6-23.25 80.6-23.25L80.6-23.25Q76.6-23.25 74.8-20.93 73-18.6 73-13.35L73-13.35 73-12.95Q73-7.7 74.8-5.38 76.6-3.05 80.6-3.05L80.6-3.05ZM106.64 0.6Q101.64 0.6 98.94-2.75 96.24-6.1 96.24-13.15L96.24-13.15Q96.24-20.05 98.92-23.48 101.59-26.9 106.24-26.9L106.24-26.9Q109.04-26.9 110.99-26.05 112.94-25.2 114.24-23.3L114.24-23.3 114.54-23.3 114.54-36.15 118.94-36.15 118.94 0 115.64 0 115.09-3.55 114.79-3.55Q113.49-1.5 111.37-0.45 109.24 0.6 106.64 0.6L106.64 0.6ZM107.74-3.05Q111.29-3.05 112.92-5.55 114.54-8.05 114.54-12.95L114.54-12.95 114.54-13.15Q114.54-18.15 112.89-20.7 111.24-23.25 107.74-23.25L107.74-23.25Q105.24-23.25 103.72-22.28 102.19-21.3 101.49-19.1 100.79-16.9 100.79-13.15L100.79-13.15 100.79-12.95Q100.79-9.25 101.49-7.1 102.19-4.95 103.69-4 105.19-3.05 107.74-3.05L107.74-3.05ZM141.34 0.6Q133.04 0.6 128.84-3.83 124.64-8.25 124.64-17.15L124.64-17.15Q124.64-26.05 128.84-30.48 133.04-34.9 141.34-34.9L141.34-34.9Q148.04-34.9 152.06-31.58 156.09-28.25 156.09-21.9L156.09-21.9 151.24-21.9Q151.24-26.3 148.62-28.58 145.99-30.85 141.34-30.85L141.34-30.85Q135.29-30.85 132.44-27.65 129.59-24.45 129.54-17.25L129.54-17.25 129.54-17.15Q129.54-9.9 132.39-6.68 135.24-3.45 141.34-3.45L141.34-3.45Q146.09-3.45 148.77-5.7 151.44-7.95 151.44-12.3L151.44-12.3 156.09-12.3Q156.09-5.9 152.09-2.65 148.09 0.6 141.34 0.6L141.34 0.6ZM168.89 0.6Q165.49 0.6 162.84-1 160.19-2.6 160.19-6.8L160.19-6.8Q160.19-11.85 164.69-13.73 169.19-15.6 177.69-15.6L177.69-15.6 177.69-18.5Q177.69-20.8 176.39-22.03 175.09-23.25 171.69-23.25L171.69-23.25Q168.49-23.25 167.11-22.05 165.74-20.85 165.74-19.1L165.74-19.1 165.74-18.5 161.49-18.5Q161.44-18.8 161.44-19.6L161.44-19.6Q161.44-23.1 164.34-25 167.24-26.9 172.09-26.9L172.09-26.9Q176.99-26.9 179.54-24.85 182.09-22.8 182.09-19.05L182.09-19.05 182.09-4.8Q182.09-3.9 182.59-3.48 183.09-3.05 183.84-3.05L183.84-3.05 185.84-3.05 185.84-0.2Q184.54 0.4 182.44 0.4L182.44 0.4Q180.74 0.4 179.59-0.63 178.44-1.65 178.04-3.35L178.04-3.35 177.69-3.35Q176.34-1.5 174.01-0.45 171.69 0.6 168.89 0.6L168.89 0.6ZM170.04-3.05Q171.99-3.05 173.74-3.85 175.49-4.65 176.59-6.23 177.69-7.8 177.69-10.05L177.69-10.05 177.69-11.95Q171.24-11.95 168.01-10.93 164.79-9.9 164.79-7.05L164.79-7.05Q164.79-4.9 166.11-3.98 167.44-3.05 170.04-3.05L170.04-3.05ZM189.54 0L189.54-26.3 192.89-26.3 193.39-22.35 193.69-22.35Q194.44-24.3 195.94-25.6 197.44-26.9 199.89-26.9L199.89-26.9Q201.24-26.9 202.24-26.5L202.24-26.5 202.24-22.25 200.39-22.25Q197.59-22.25 195.76-20.63 193.94-19 193.94-15.55L193.94-15.55 193.94 0 189.54 0ZM206.18 0L206.18-36.15 210.58-36.15 210.58 0 206.18 0ZM227.83 0.6Q221.78 0.6 218.73-2.78 215.68-6.15 215.68-13.15L215.68-13.15Q215.68-20.15 218.73-23.53 221.78-26.9 227.83-26.9L227.83-26.9Q233.88-26.9 236.93-23.53 239.98-20.15 239.98-13.15L239.98-13.15Q239.98-6.15 236.93-2.78 233.88 0.6 227.83 0.6L227.83 0.6ZM227.83-3.05Q231.83-3.05 233.63-5.38 235.43-7.7 235.43-12.95L235.43-12.95 235.43-13.35Q235.43-18.6 233.63-20.93 231.83-23.25 227.83-23.25L227.83-23.25Q223.83-23.25 222.03-20.93 220.23-18.6 220.23-13.35L220.23-13.35 220.23-12.95Q220.23-7.7 222.03-5.38 223.83-3.05 227.83-3.05L227.83-3.05ZM254.08 0.6Q250.43 0.6 248-0.48 245.58-1.55 244.43-3.3 243.28-5.05 243.28-7.1L243.28-7.1Q243.28-7.7 243.3-7.93 243.33-8.15 243.33-8.2L243.33-8.2 247.68-8.2 247.68-7.7Q247.68-5.35 249.53-4.17 251.38-3 254.33-3L254.33-3Q256.88-3 258.55-4.03 260.23-5.05 260.23-6.9L260.23-6.9Q260.23-8.35 259.28-9.28 258.33-10.2 256.93-10.73 255.53-11.25 253.13-11.85L253.13-11.85Q250.23-12.6 248.4-13.35 246.58-14.1 245.3-15.58 244.03-17.05 244.03-19.4L244.03-19.4Q244.03-22.85 246.85-24.88 249.68-26.9 254.48-26.9L254.48-26.9Q257.48-26.9 259.68-25.93 261.88-24.95 263-23.33 264.13-21.7 264.13-19.7L264.13-19.7 264.08-18.75 259.78-18.75 259.78-19.2Q259.78-20.95 258.4-22.1 257.03-23.25 253.98-23.25L253.98-23.25Q250.98-23.25 249.78-22.18 248.58-21.1 248.58-19.7L248.58-19.7Q248.58-18.55 249.43-17.8 250.28-17.05 251.53-16.6 252.78-16.15 255.03-15.6L255.03-15.6Q258.13-14.8 260.08-14.03 262.03-13.25 263.4-11.68 264.78-10.1 264.78-7.5L264.78-7.5Q264.78-3.45 261.85-1.43 258.93 0.6 254.08 0.6L254.08 0.6Z" opacity="1" transform="matrix(1,0,0,1,0,0)" fill="#ffffff" class="wordmark-text-0" data-fill-palette-color="primary" id="text-0"></path></svg></g></svg></g><g transform="matrix(1,0,0,1,0,72.14508838984764)"><svg viewBox="0 0 232.209792 21.16897663450411" height="21.16897663450411" width="232.209792"><g transform="matrix(1,0,0,1,0,0)"><svg width="232.209792" viewBox="2.2565234375000003 -37.6 502.90347656250003 45.85" height="21.16897663450411" data-palette-color="#ff9966"><path d="M2.75 0L2.75 0Q2.45 0 2.33-0.23 2.2-0.45 2.3-0.85L2.3-0.85 15.25-36.4Q15.4-36.75 15.6-36.93 15.8-37.1 16.25-37.1L16.25-37.1 20.15-37.1Q21.05-37.1 21.3-36.35L21.3-36.35 34.1-0.85Q34.2-0.55 34.08-0.28 33.95 0 33.6 0L33.6 0 30.05 0Q29.45 0 29.25-0.5L29.25-0.5 25.8-10.2Q25.7-10.4 25.6-10.5 25.5-10.6 25.2-10.6L25.2-10.6 10.65-10.6Q10.2-10.6 10.05-10.2L10.05-10.2 6.5-0.45Q6.45-0.25 6.28-0.13 6.1 0 5.75 0L5.75 0 2.75 0ZM11.8-14.4L23.9-14.4Q24.5-14.4 24.3-15.05L24.3-15.05 18.3-31.5Q18.1-31.95 17.93-31.95 17.75-31.95 17.6-31.5L17.6-31.5 11.5-14.95Q11.25-14.4 11.8-14.4L11.8-14.4ZM44.45-36.45L44.45-0.85Q44.45-0.35 44.25-0.18 44.05 0 43.55 0L43.55 0 40.95 0Q40.2 0 40.2-0.7L40.2-0.7 40.25-36.4Q40.25-37.1 40.85-37.1L40.85-37.1 43.85-37.1Q44.45-37.1 44.45-36.45L44.45-36.45ZM86.05-26.5L86.05-26.5Q86.35-26.5 86.5-26.28 86.65-26.05 86.55-25.75L86.55-25.75 78.9-0.65Q78.8-0.3 78.57-0.15 78.35 0 77.95 0L77.95 0 75.55 0Q74.7 0 74.5-0.65L74.5-0.65 68.55-19.35Q68.35-19.8 68.2-19.8 68.05-19.8 67.95-19.35L67.95-19.35 62.3-0.65Q62.2-0.3 61.97-0.15 61.75 0 61.35 0L61.35 0 58.8 0Q58 0 57.75-0.65L57.75-0.65 49.85-25.75Q49.8-26.05 49.95-26.28 50.1-26.5 50.45-26.5L50.45-26.5 53.4-26.5Q53.7-26.5 53.9-26.38 54.1-26.25 54.2-25.95L54.2-25.95 60.15-6.5Q60.3-6 60.5-6.03 60.7-6.05 60.9-6.55L60.9-6.55 66.8-26Q66.9-26.25 67.07-26.38 67.25-26.5 67.5-26.5L67.5-26.5 69.85-26.5Q70.15-26.5 70.35-26.38 70.55-26.25 70.6-25.95L70.6-25.95 76.75-6.5Q76.9-6 77.1-6.03 77.3-6.05 77.45-6.55L77.45-6.55 83.2-25.95Q83.35-26.25 83.55-26.38 83.75-26.5 84.05-26.5L84.05-26.5 86.05-26.5ZM106.54-3.2L106.54-3.2Q104.69-1.4 102.52-0.45 100.34 0.5 97.64 0.5L97.64 0.5Q93.74 0.5 91.52-1.5 89.29-3.5 89.29-6.75L89.29-6.75Q89.29-9.4 90.79-11.33 92.29-13.25 95.24-14.38 98.19-15.5 102.49-15.75L102.49-15.75 106.39-16.05Q106.69-16.1 106.94-16.25 107.19-16.4 107.19-16.8L107.19-16.8 107.19-18.15Q107.19-20.85 105.52-22.43 103.84-24 100.99-24L100.99-24Q98.79-24 97.02-23 95.24-22 93.84-20L93.84-20Q93.64-19.75 93.52-19.68 93.39-19.6 93.09-19.7L93.09-19.7 90.39-20.6Q90.24-20.7 90.17-20.85 90.09-21 90.29-21.4L90.29-21.4Q91.79-24 94.52-25.5 97.24-27 101.19-27L101.19-27Q104.54-27 106.77-25.98 108.99-24.95 110.12-23.03 111.24-21.1 111.24-18.45L111.24-18.45 111.24-0.75Q111.24-0.3 111.09-0.15 110.94 0 110.59 0L110.59 0 108.04 0Q107.69 0 107.54-0.23 107.39-0.45 107.34-0.8L107.34-0.8 107.29-3.1Q107.14-3.8 106.54-3.2L106.54-3.2ZM107.19-12.7L107.19-12.7Q107.19-13.55 106.49-13.5L106.49-13.5 103.19-13.2Q100.89-13.1 99.09-12.63 97.29-12.15 96.04-11.4 94.79-10.65 94.14-9.63 93.49-8.6 93.49-7.25L93.49-7.25Q93.49-5.05 95.02-3.83 96.54-2.6 99.14-2.6L99.14-2.6Q100.74-2.6 102.22-3.18 103.69-3.75 104.79-4.65L104.79-4.65Q105.94-5.6 106.57-6.6 107.19-7.6 107.19-8.55L107.19-8.55 107.19-12.7ZM119.64 8.25L119.64 8.25Q118.19 8.25 117.39 8.15 116.59 8.05 116.59 7.6L116.59 7.6 116.59 5.65Q116.59 5.3 116.87 5.15 117.14 5 117.99 5L117.99 5 121.14 5Q122.24 5 123.14 4.28 124.04 3.55 124.64 2.45 125.24 1.35 125.44 0.23 125.64-0.9 125.29-1.75L125.29-1.75 115.74-25.65Q115.64-26 115.77-26.25 115.89-26.5 116.29-26.5L116.29-26.5 119.39-26.5Q119.69-26.5 119.89-26.38 120.09-26.25 120.19-25.95L120.19-25.95 127.64-6.55Q127.84-6.1 128.09-6.1 128.34-6.1 128.54-6.7L128.54-6.7 135.89-25.95Q136.04-26.25 136.19-26.38 136.34-26.5 136.59-26.5L136.59-26.5 138.94-26.5Q139.29-26.5 139.44-26.28 139.59-26.05 139.44-25.75L139.44-25.75 128.44 2.35Q127.74 4.15 126.89 5.3 126.04 6.45 124.97 7.08 123.89 7.7 122.59 7.98 121.29 8.25 119.64 8.25L119.64 8.25ZM159.79-20.65L159.79-20.65Q158.79-22.15 156.99-23.1 155.19-24.05 152.69-24.05L152.69-24.05Q149.99-24.05 148.21-22.9 146.44-21.75 146.44-19.8L146.44-19.8Q146.44-18.75 147.24-17.82 148.04-16.9 150.49-16.1L150.49-16.1 156.84-14.2Q160.29-13.25 161.81-11.45 163.34-9.65 163.34-7.3L163.34-7.3Q163.34-4.95 161.94-3.2 160.54-1.45 158.09-0.48 155.64 0.5 152.54 0.5L152.54 0.5Q148.59 0.5 145.64-1.07 142.69-2.65 141.44-5L141.44-5Q141.29-5.25 141.29-5.45 141.29-5.65 141.54-5.8L141.54-5.8 143.49-6.9Q143.74-7.05 143.94-7.03 144.14-7 144.24-6.85L144.24-6.85Q145.09-5.55 146.21-4.6 147.34-3.65 148.91-3.1 150.49-2.55 152.59-2.55L152.59-2.55Q154.49-2.6 156.04-3.1 157.59-3.6 158.49-4.58 159.39-5.55 159.39-6.85L159.39-6.85Q159.39-8.2 158.29-9.18 157.19-10.15 154.49-10.9L154.49-10.9 149.34-12.35Q145.59-13.35 144.06-15.05 142.54-16.75 142.49-19.05L142.49-19.05Q142.49-21.45 143.79-23.23 145.09-25 147.41-26 149.74-27 152.74-27L152.74-27Q156.09-27 158.71-25.73 161.34-24.45 162.69-22.35L162.69-22.35Q162.84-22.15 162.84-21.98 162.84-21.8 162.64-21.65L162.64-21.65 160.54-20.5Q160.34-20.4 160.16-20.43 159.99-20.45 159.79-20.65L159.79-20.65ZM195.08 0.5L195.08 0.5Q190.28 0.5 186.78-1.78 183.28-4.05 181.43-8.28 179.58-12.5 179.58-18.4L179.58-18.4Q179.58-24.45 181.53-28.75 183.48-33.05 187.03-35.33 190.58-37.6 195.28-37.6L195.28-37.6Q198.78-37.6 201.71-36.2 204.63-34.8 206.56-32.5 208.48-30.2 208.88-27.6L208.88-27.6Q208.93-27.2 208.86-27.05 208.78-26.9 208.48-26.8L208.48-26.8 204.88-26.25Q204.63-26.2 204.51-26.33 204.38-26.45 204.33-26.75L204.33-26.75Q203.98-28.75 202.73-30.38 201.48-32 199.56-32.98 197.63-33.95 195.23-33.95L195.23-33.95Q191.83-33.95 189.43-32.23 187.03-30.5 185.81-27.08 184.58-23.65 184.58-18.7L184.58-18.7Q184.58-13.5 185.81-10.03 187.03-6.55 189.46-4.85 191.88-3.15 195.33-3.15L195.33-3.15Q197.78-3.15 199.58-3.98 201.38-4.8 202.58-6.18 203.78-7.55 204.43-9.13 205.08-10.7 205.13-12.2L205.13-12.2 205.18-15.2Q205.28-15.7 204.68-15.7L204.68-15.7 196.53-15.7Q196.23-15.7 196.11-15.83 195.98-15.95 195.98-16.25L195.98-16.25 195.98-18.4Q195.98-18.85 196.48-18.85L196.48-18.85 208.88-18.8Q209.23-18.8 209.43-18.65 209.63-18.5 209.63-18.2L209.63-18.2 209.63-0.65Q209.63-0.3 209.48-0.15 209.33 0 209.03 0L209.03 0 207.88 0Q207.53 0 207.31-0.1 207.08-0.2 206.98-0.6L206.98-0.6 206.43-5.25Q206.38-5.45 206.26-5.45 206.13-5.45 205.98-5.2L205.98-5.2Q205.03-3.7 203.58-2.4 202.13-1.1 200.03-0.3 197.93 0.5 195.08 0.5L195.08 0.5ZM228.23 0.5L228.23 0.5Q224.48 0.5 221.61-1.23 218.73-2.95 217.16-6.03 215.58-9.1 215.58-13.1L215.58-13.1Q215.58-17.25 217.21-20.38 218.83-23.5 221.68-25.25 224.53-27 228.28-27L228.28-27Q232.08-27 234.91-25.23 237.73-23.45 239.31-20.33 240.88-17.2 240.88-13.15L240.88-13.15Q240.88-9.15 239.28-6.08 237.68-3 234.86-1.25 232.03 0.5 228.23 0.5L228.23 0.5ZM228.33-2.65L228.33-2.65Q230.93-2.65 232.78-3.93 234.63-5.2 235.61-7.58 236.58-9.95 236.58-13.25L236.58-13.25Q236.58-16.55 235.58-18.93 234.58-21.3 232.73-22.6 230.88-23.9 228.28-23.9L228.28-23.9Q225.73-23.9 223.83-22.6 221.93-21.3 220.91-18.93 219.88-16.55 219.88-13.25L219.88-13.25Q219.88-10 220.91-7.6 221.93-5.2 223.83-3.93 225.73-2.65 228.33-2.65L228.33-2.65ZM258.18 0.5L258.18 0.5Q254.43 0.5 251.55-1.23 248.68-2.95 247.1-6.03 245.53-9.1 245.53-13.1L245.53-13.1Q245.53-17.25 247.15-20.38 248.78-23.5 251.63-25.25 254.48-27 258.23-27L258.23-27Q262.03-27 264.85-25.23 267.68-23.45 269.25-20.33 270.83-17.2 270.83-13.15L270.83-13.15Q270.83-9.15 269.23-6.08 267.63-3 264.8-1.25 261.98 0.5 258.18 0.5L258.18 0.5ZM258.28-2.65L258.28-2.65Q260.88-2.65 262.73-3.93 264.58-5.2 265.55-7.58 266.53-9.95 266.53-13.25L266.53-13.25Q266.53-16.55 265.53-18.93 264.53-21.3 262.68-22.6 260.83-23.9 258.23-23.9L258.23-23.9Q255.68-23.9 253.78-22.6 251.88-21.3 250.85-18.93 249.83-16.55 249.83-13.25L249.83-13.25Q249.83-10 250.85-7.6 251.88-5.2 253.78-3.93 255.68-2.65 258.28-2.65L258.28-2.65ZM295.88 0L295.88 0Q295.53 0 295.35-0.18 295.18-0.35 295.18-0.7L295.18-0.7 295.18-2.8Q295.18-3.2 295-3.25 294.82-3.3 294.53-3L294.53-3Q293.98-2.5 292.95-1.65 291.93-0.8 290.38-0.15 288.82 0.5 286.68 0.5L286.68 0.5Q283.53 0.5 281.03-1 278.53-2.5 277.05-5.48 275.57-8.45 275.57-12.85L275.57-12.85Q275.57-17.1 277.05-20.28 278.53-23.45 281.2-25.23 283.88-27 287.28-27L287.28-27Q289.73-27 291.38-26.2 293.03-25.4 294.28-24.35L294.28-24.35Q294.73-24 294.9-24.08 295.07-24.15 295.07-24.7L295.07-24.7 295.07-36.45Q295.07-37.1 295.63-37.1L295.63-37.1 298.68-37.1Q299.23-37.1 299.23-36.45L299.23-36.45 299.23-0.8Q299.23-0.35 299.07-0.18 298.93 0 298.43 0L298.43 0 295.88 0ZM295.03-20.65L295.03-20.65Q293.48-22.2 291.88-23.05 290.28-23.9 288.28-23.9L288.28-23.9Q285.88-23.9 283.95-22.68 282.03-21.45 280.95-19 279.88-16.55 279.88-13L279.88-13Q279.88-9.35 280.98-7.03 282.07-4.7 283.93-3.63 285.78-2.55 287.98-2.55L287.98-2.55Q290.03-2.55 291.6-3.5 293.18-4.45 294.1-5.85 295.03-7.25 295.03-8.6L295.03-8.6 295.03-20.65ZM345.17-0.95L345.17-0.95Q345.32-0.6 345.14-0.3 344.97 0 344.62 0L344.62 0 340.97 0Q340.42 0 340.17-0.6L340.17-0.6 333.72-16.35Q333.47-16.9 332.52-16.9L332.52-16.9 324.07-16.9Q323.72-16.9 323.59-16.75 323.47-16.6 323.47-16.35L323.47-16.35 323.47-0.8Q323.47 0 322.62 0L322.62 0 319.37 0Q318.97 0 318.82-0.18 318.67-0.35 318.67-0.65L318.67-0.65 318.67-36.4Q318.67-37.1 319.27-37.1L319.27-37.1 333.22-37.1Q339.12-37.1 342.39-34.68 345.67-32.25 345.67-27.5L345.67-27.5Q345.67-24.65 344.57-22.68 343.47-20.7 341.8-19.53 340.12-18.35 338.37-17.8L338.37-17.8Q337.97-17.75 338.17-17.3L338.17-17.3 345.17-0.95ZM331.82-20.4L331.82-20.4Q336.22-20.4 338.44-22 340.67-23.6 340.67-27.05L340.67-27.05Q340.67-30.4 338.69-32 336.72-33.6 332.97-33.6L332.97-33.6 324.17-33.6Q323.47-33.6 323.47-33.05L323.47-33.05 323.47-21.05Q323.47-20.4 323.92-20.4L323.92-20.4 331.82-20.4ZM353.42-11.6L353.42-11.6Q353.42-9.15 354.59-7.13 355.77-5.1 357.74-3.9 359.72-2.7 362.17-2.7L362.17-2.7Q364.67-2.7 366.62-3.73 368.57-4.75 369.97-6.85L369.97-6.85Q370.17-7.05 370.29-7.08 370.42-7.1 370.67-7L370.67-7 372.77-5.95Q373.22-5.7 372.87-5.25L372.87-5.25Q371.52-3.25 369.89-1.98 368.27-0.7 366.27-0.1 364.27 0.5 361.77 0.5L361.77 0.5Q358.07 0.5 355.22-1.2 352.37-2.9 350.72-5.95 349.07-9 349.07-13L349.07-13Q349.07-17.35 350.74-20.48 352.42-23.6 355.29-25.3 358.17-27 361.72-27L361.72-27Q365.37-27 368.07-25.4 370.77-23.8 372.27-20.75 373.77-17.7 373.77-13.4L373.77-13.4Q373.77-13.05 373.69-12.7 373.62-12.35 373.02-12.35L373.02-12.35 353.87-12.35Q353.67-12.35 353.54-12.13 353.42-11.9 353.42-11.6L353.42-11.6ZM353.52-15.1L368.72-15.1Q369.27-15.1 369.42-15.23 369.57-15.35 369.57-15.8L369.57-15.8Q369.57-17.95 368.64-19.83 367.72-21.7 365.99-22.85 364.27-24 361.82-24L361.82-24Q359.12-24 357.27-22.73 355.42-21.45 354.47-19.4 353.52-17.35 353.52-15.1L353.52-15.1ZM400.41-26.5L400.41-26.5Q400.76-26.5 400.91-26.28 401.06-26.05 400.91-25.75L400.91-25.75 390.76-0.75Q390.51 0 389.62 0L389.62 0 387.81 0Q386.87 0 386.56-0.7L386.56-0.7 376.46-25.75Q376.37-26.05 376.51-26.28 376.66-26.5 377.01-26.5L377.01-26.5 380.12-26.5Q380.41-26.5 380.62-26.38 380.81-26.25 380.91-25.95L380.91-25.95 388.76-6.3Q389.12-5.35 389.56-6.35L389.56-6.35 397.37-25.95Q397.46-26.25 397.64-26.38 397.81-26.5 398.12-26.5L398.12-26.5 400.41-26.5ZM410.41-25.85L410.41-0.85Q410.41-0.35 410.24-0.18 410.06 0 409.51 0L409.51 0 406.96 0Q406.51 0 406.36-0.15 406.21-0.3 406.21-0.7L406.21-0.7 406.21-25.8Q406.21-26.5 406.81-26.5L406.81-26.5 409.86-26.5Q410.41-26.5 410.41-25.85L410.41-25.85ZM410.61-36.35L410.61-32.2Q410.61-31.25 409.71-31.25L409.71-31.25 406.81-31.25Q406.36-31.25 406.21-31.48 406.06-31.7 406.06-32.1L406.06-32.1 406.06-36.3Q406.06-37.1 406.76-37.1L406.76-37.1 409.91-37.1Q410.61-37.1 410.61-36.35L410.61-36.35ZM420.96-11.6L420.96-11.6Q420.96-9.15 422.13-7.13 423.31-5.1 425.29-3.9 427.26-2.7 429.71-2.7L429.71-2.7Q432.21-2.7 434.16-3.73 436.11-4.75 437.51-6.85L437.51-6.85Q437.71-7.05 437.83-7.08 437.96-7.1 438.21-7L438.21-7 440.31-5.95Q440.76-5.7 440.41-5.25L440.41-5.25Q439.06-3.25 437.44-1.98 435.81-0.7 433.81-0.1 431.81 0.5 429.31 0.5L429.31 0.5Q425.61 0.5 422.76-1.2 419.91-2.9 418.26-5.95 416.61-9 416.61-13L416.61-13Q416.61-17.35 418.29-20.48 419.96-23.6 422.83-25.3 425.71-27 429.26-27L429.26-27Q432.91-27 435.61-25.4 438.31-23.8 439.81-20.75 441.31-17.7 441.31-13.4L441.31-13.4Q441.31-13.05 441.24-12.7 441.16-12.35 440.56-12.35L440.56-12.35 421.41-12.35Q421.21-12.35 421.08-12.13 420.96-11.9 420.96-11.6L420.96-11.6ZM421.06-15.1L436.26-15.1Q436.81-15.1 436.96-15.23 437.11-15.35 437.11-15.8L437.11-15.8Q437.11-17.95 436.19-19.83 435.26-21.7 433.54-22.85 431.81-24 429.36-24L429.36-24Q426.66-24 424.81-22.73 422.96-21.45 422.01-19.4 421.06-17.35 421.06-15.1L421.06-15.1ZM480.46-26.5L480.46-26.5Q480.76-26.5 480.91-26.28 481.06-26.05 480.96-25.75L480.96-25.75 473.31-0.65Q473.21-0.3 472.98-0.15 472.76 0 472.36 0L472.36 0 469.96 0Q469.11 0 468.91-0.65L468.91-0.65 462.96-19.35Q462.76-19.8 462.61-19.8 462.46-19.8 462.36-19.35L462.36-19.35 456.71-0.65Q456.61-0.3 456.38-0.15 456.16 0 455.76 0L455.76 0 453.21 0Q452.41 0 452.16-0.65L452.16-0.65 444.26-25.75Q444.21-26.05 444.36-26.28 444.51-26.5 444.86-26.5L444.86-26.5 447.81-26.5Q448.11-26.5 448.31-26.38 448.51-26.25 448.61-25.95L448.61-25.95 454.56-6.5Q454.71-6 454.91-6.03 455.11-6.05 455.31-6.55L455.31-6.55 461.21-26Q461.31-26.25 461.48-26.38 461.66-26.5 461.91-26.5L461.91-26.5 464.26-26.5Q464.56-26.5 464.76-26.38 464.96-26.25 465.01-25.95L465.01-25.95 471.16-6.5Q471.31-6 471.51-6.03 471.71-6.05 471.86-6.55L471.86-6.55 477.61-25.95Q477.76-26.25 477.96-26.38 478.16-26.5 478.46-26.5L478.46-26.5 480.46-26.5ZM501.61-20.65L501.61-20.65Q500.61-22.15 498.81-23.1 497.01-24.05 494.51-24.05L494.51-24.05Q491.81-24.05 490.03-22.9 488.26-21.75 488.26-19.8L488.26-19.8Q488.26-18.75 489.06-17.82 489.86-16.9 492.31-16.1L492.31-16.1 498.66-14.2Q502.11-13.25 503.63-11.45 505.16-9.65 505.16-7.3L505.16-7.3Q505.16-4.95 503.76-3.2 502.36-1.45 499.91-0.48 497.46 0.5 494.36 0.5L494.36 0.5Q490.41 0.5 487.46-1.07 484.51-2.65 483.26-5L483.26-5Q483.11-5.25 483.11-5.45 483.11-5.65 483.36-5.8L483.36-5.8 485.31-6.9Q485.56-7.05 485.76-7.03 485.96-7 486.06-6.85L486.06-6.85Q486.91-5.55 488.03-4.6 489.16-3.65 490.73-3.1 492.31-2.55 494.41-2.55L494.41-2.55Q496.31-2.6 497.86-3.1 499.41-3.6 500.31-4.58 501.21-5.55 501.21-6.85L501.21-6.85Q501.21-8.2 500.11-9.18 499.01-10.15 496.31-10.9L496.31-10.9 491.16-12.35Q487.41-13.35 485.88-15.05 484.36-16.75 484.31-19.05L484.31-19.05Q484.31-21.45 485.61-23.23 486.91-25 489.23-26 491.56-27 494.56-27L494.56-27Q497.91-27 500.53-25.73 503.16-24.45 504.51-22.35L504.51-22.35Q504.66-22.15 504.66-21.98 504.66-21.8 504.46-21.65L504.46-21.65 502.36-20.5Q502.16-20.4 501.98-20.43 501.81-20.45 501.61-20.65L501.61-20.65Z" opacity="1" transform="matrix(1,0,0,1,0,0)" fill="#ff9966" class="slogan-text-1" data-fill-palette-color="secondary" id="text-1"></path></svg></g></svg></g></svg></g></svg></g><g><svg viewBox="0 0 245.65351679999992 224.22960199844087" height="224.22960199844087" width="245.65351679999992"><g><svg xmlns="http://www.w3.org/2000/svg" xmlns:xlink="http://www.w3.org/1999/xlink" version="1.1" x="0" y="0" viewBox="1.620310420892359 6.860266043072417 60.758416393583325 55.45955825692758" style="enable-background:new 0 0 64 64;" xml:space="preserve" height="224.22960199844087" width="245.65351679999992" class="icon-icon-0" data-fill-palette-color="accent" id="icon-0"><g fill="#ff9966" data-fill-palette-color="accent"><path d="M58.996 28.95l-1.293-1.293c0.16-1.691-0.423-3.251-1.693-4.521l-1.414-1.414 1.415-1.414 0.235-0.236 1.179-1.178 0-0.001 2.828-2.828c2.115-2.115 2.107-4.964-0.02-7.091l-0.52-0.52c-1.078-1.078-2.552-1.659-4.083-1.588-1.307 0.06-2.489 0.617-3.182 1.458l-3.869 3.858c-0.01 0.009-0.022 0.012-0.032 0.021L27.653 33.101c-1.343 1.157-3.09 1.008-4.459-0.385l-4.579-4.578c-1.053-1.053-2.29-1.87-3.677-2.429l-5.222-2.086c-2.276-0.919-4.728-0.375-6.562 1.458l-0.707 0.707c-0.323 0.323-0.706 0.767-0.802 1.339-0.1 0.59 0.11 1.151 0.626 1.666l13.096 13.096c1.085 1.085 1.46 1.508 1.46 2.46 0 1.756 0.735 8.221 10.192 17.678 0.195 0.195 0.451 0.293 0.707 0.293s0.512-0.098 0.707-0.293c0.391-0.391 0.391-1.023 0-1.414-7.083-7.083-9.606-13.045-9.606-16.264 0-1.828-0.948-2.776-2.046-3.874l-7.439-7.439c0 0 0 0 0 0l0.706-0.707c0.567-0.567 0.879-1.32 0.879-2.122s-0.312-1.555-0.879-2.121l-2.121-2.122c-0.391-0.391-1.023-0.391-1.414 0-0.391 0.39-0.391 1.023 0 1.414l2.121 2.122c0.189 0.188 0.293 0.439 0.293 0.707s-0.104 0.518-0.293 0.707l-0.707 0.707-4.236-4.236c0.038-0.046 0.093-0.106 0.17-0.183l0.707-0.707c1.247-1.246 2.892-1.625 4.403-1.016l5.222 2.086c1.135 0.457 2.146 1.125 3.008 1.987l4.573 4.573c2.094 2.131 5.049 2.332 7.239 0.44l20.627-20.627 0.005 0.005 4.278-4.272c0.397-0.479 1.054-0.772 1.8-0.807 0.952-0.049 1.895 0.322 2.576 1.004l0.52 0.52c1.36 1.361 1.368 2.915 0.02 4.263l-4.007 4.007-1.65 1.65 0 0-1.414 1.414 0 0-16.971 16.97c-1.56 1.56-1.56 4.098 0 5.657l2.122 2.122c0.678 0.678 1.373 0.885 1.967 0.884 0.288 0 0.553-0.048 0.781-0.115 0.422-0.124 0.846-0.357 1.29-0.688 0.186 0.898 0.605 1.734 1.216 2.344l0.52 0.521c0.739 0.739 1.694 1.106 2.663 1.106 1.023 0 2.062-0.41 2.876-1.224l1.831-1.83c0.173 0.688 0.509 1.342 1.037 1.869l0.521 0.521c0.601 0.601 1.401 0.931 2.255 0.931 0.01 0 0.021 0 0.031 0 0.859-0.008 1.669-0.35 2.28-0.961l4.243-4.243c1.316-1.315 2.006-3.059 1.945-4.91-0.056-1.674-0.722-3.27-1.873-4.539C61.438 33.691 60.948 30.902 58.996 28.95zM40.454 44.349c-0.541 0.541-0.995 0.868-1.35 0.972-0.197 0.059-0.42 0.086-0.771-0.264l-2.122-2.122c-0.767-0.767-0.766-2.062 0-2.829l2.122-2.121 0.707 0.708c0.189 0.188 0.293 0.439 0.293 0.706s-0.104 0.518-0.293 0.707l-0.707 0.708c-0.39 0.391-0.39 1.024 0 1.415 0.195 0.195 0.451 0.292 0.707 0.292s0.512-0.098 0.708-0.293l0.706-0.707c0.567-0.567 0.879-1.32 0.879-2.122s-0.312-1.555-0.879-2.121l-0.707-0.707 13.435-13.435 1.414 1.414c0.875 0.875 1.246 1.898 1.103 3.041-0.14 1.116-0.783 2.296-1.81 3.323l-10.381 10.382L40.454 44.349zM51.061 43.642l-4.243 4.243c-0.806 0.807-1.97 0.857-2.711 0.118l-0.52-0.521c-0.401-0.401-0.675-1.018-0.734-1.651-0.057-0.612 0.1-1.152 0.43-1.482l1.414-1.414 0 0.001c0.189 0.188 0.293 0.439 0.293 0.706s-0.104 0.518-0.293 0.707c-0.391 0.391-0.391 1.024-0.001 1.414 0.195 0.195 0.452 0.293 0.708 0.293s0.512-0.098 0.707-0.292c0.567-0.567 0.879-1.32 0.879-2.122s-0.312-1.555-0.879-2.121l0 0 9.192-9.193c0.77-0.77 1.368-1.602 1.778-2.465l0.501 0.501c1.895 1.895 1.825 4.932-0.157 6.914L51.061 43.642zM59.016 44.172l-4.244 4.243c-0.238 0.239-0.552 0.372-0.884 0.375-0.326-0.013-0.628-0.12-0.853-0.345l-0.521-0.521c-0.774-0.774-0.792-2.115-0.039-2.868l0.707-0.707c0.189 0.189 0.293 0.44 0.293 0.707 0 0.267-0.104 0.519-0.293 0.708-0.391 0.391-0.391 1.023 0 1.414 0.195 0.195 0.451 0.293 0.707 0.293s0.512-0.098 0.707-0.293c1.17-1.17 1.17-3.073 0-4.243l4.243-4.243 0.642-0.642c0.551 0.804 0.863 1.732 0.895 2.692C60.419 42.034 59.936 43.252 59.016 44.172z" fill="#ff9966" data-fill-palette-color="accent"></path></g></svg></g></svg></g></svg></g></svg></g><defs></defs></svg><rect width="395.52" height="135.1475249464264" fill="none" stroke="none" visibility="hidden"></rect></g></svg></g></svg>